HIERARCHY
ROOT Hips
{
	OFFSET 0.000000 0.000000 0.000000
	CHANNELS 6 Xposition Yposition Zposition Zrotation Yrotation Xrotation 
	JOINT LHipJoint
	{
		OFFSET 0.000000 0.000000 0.000000
		CHANNELS 3 Zrotation Yrotation Xrotation
		JOINT LeftUpLeg
		{
			OFFSET 1.363060 -1.794630 0.839290
			CHANNELS 3 Zrotation Yrotation Xrotation
			JOINT LeftLeg
			{
				OFFSET 2.448110 -6.726130 0.000000
				CHANNELS 3 Zrotation Yrotation Xrotation
				JOINT LeftFoot
				{
					OFFSET 2.562200 -7.039590 0.000000
					CHANNELS 3 Zrotation Yrotation Xrotation
					JOINT LeftToeBase
					{
						OFFSET 0.157640 -0.433110 2.322550
						CHANNELS 3 Zrotation Yrotation Xrotation
						End Site
						{
							OFFSET 0.000000 0.000000 0.000000
						}
					}
				}
			}
		}
	}
	JOINT RHipJoint
	{
		OFFSET 0.000000 0.000000 0.000000
		CHANNELS 3 Zrotation Yrotation Xrotation
		JOINT RightUpLeg
		{
			OFFSET -1.305520 -1.794630 0.839290
			CHANNELS 3 Zrotation Yrotation Xrotation
			JOINT RightLeg
			{
				OFFSET -2.542530 -6.985550 0.000000
				CHANNELS 3 Zrotation Yrotation Xrotation
				JOINT RightFoot
				{
					OFFSET -2.568260 -7.056230 0.000000
					CHANNELS 3 Zrotation Yrotation Xrotation
					JOINT RightToeBase
					{
						OFFSET -0.164730 -0.452590 2.363150
						CHANNELS 3 Zrotation Yrotation Xrotation
						End Site
						{
							OFFSET 0.000000 0.000000 0.000000
						}
					}
				}
			}
		}
	}
	JOINT LowerBack
	{
		OFFSET 0.000000 0.000000 0.000000
		CHANNELS 3 Zrotation Yrotation Xrotation
		JOINT Spine
		{
			OFFSET 0.028270 2.035590 -0.193380
			CHANNELS 3 Zrotation Yrotation Xrotation
			JOINT Spine1
			{
				OFFSET 0.056720 2.048850 -0.042750
				CHANNELS 3 Zrotation Yrotation Xrotation
				JOINT Neck
				{
					OFFSET 0.000000 0.000000 0.000000
					CHANNELS 3 Zrotation Yrotation Xrotation
					JOINT Neck1
					{
						OFFSET -0.054170 1.746240 0.172020
						CHANNELS 3 Zrotation Yrotation Xrotation
						JOINT Head
						{
							OFFSET 0.104070 1.761360 -0.123970
							CHANNELS 3 Zrotation Yrotation Xrotation
							End Site
							{
								OFFSET 0.000000 0.000000 0.000000
							}
						}
					}
				}
				JOINT LeftShoulder
				{
					OFFSET 0.000000 0.000000 0.000000
					CHANNELS 3 Zrotation Yrotation Xrotation
					JOINT LeftArm
					{
						OFFSET 3.362410 1.200890 -0.311210
						CHANNELS 3 Zrotation Yrotation Xrotation
						JOINT LeftForeArm
						{
							OFFSET 4.983000 -0.000000 -0.000000
							CHANNELS 3 Zrotation Yrotation Xrotation
							JOINT LeftHand
							{
								OFFSET 3.483560 -0.000000 -0.000000
								CHANNELS 3 Zrotation Yrotation Xrotation
								JOINT LeftFingerBase
								{
									OFFSET 0.000000 0.000000 0.000000
									CHANNELS 3 Zrotation Yrotation Xrotation
									JOINT LeftHandIndex1
									{
										OFFSET 0.715260 -0.000000 -0.000000
										CHANNELS 3 Zrotation Yrotation Xrotation
										End Site
										{
											OFFSET 0.000000 0.000000 0.000000
										}
									}
								}
								JOINT LThumb
								{
									OFFSET 0.000000 0.000000 0.000000
									CHANNELS 3 Zrotation Yrotation Xrotation
									End Site
									{
										OFFSET 0.000000 0.000000 0.000000
									}
								}
							}
						}
					}
				}
				JOINT RightShoulder
				{
					OFFSET 0.000000 0.000000 0.000000
					CHANNELS 3 Zrotation Yrotation Xrotation
					JOINT RightArm
					{
						OFFSET -3.136600 1.374050 -0.404650
						CHANNELS 3 Zrotation Yrotation Xrotation
						JOINT RightForeArm
						{
							OFFSET -5.241900 -0.000000 -0.000000
							CHANNELS 3 Zrotation Yrotation Xrotation
							JOINT RightHand
							{
								OFFSET -3.444170 -0.000000 -0.000000
								CHANNELS 3 Zrotation Yrotation Xrotation
								JOINT RightFingerBase
								{
									OFFSET 0.000000 0.000000 0.000000
									CHANNELS 3 Zrotation Yrotation Xrotation
									JOINT RightHandIndex1
									{
										OFFSET -0.622530 -0.000000 -0.000000
										CHANNELS 3 Zrotation Yrotation Xrotation
										End Site
										{
											OFFSET 0.000000 0.000000 0.000000
										}
									}
								}
								JOINT RThumb
								{
									OFFSET 0.000000 0.000000 0.000000
									CHANNELS 3 Zrotation Yrotation Xrotation
									End Site
									{
										OFFSET 0.000000 0.000000 0.000000
									}
								}
							}
						}
					}
				}
			}
		}
	}
}
MOTION
Frames: 4
Frame Time: 0.008333
3.481959 17.655262 0.055337 -145.202537 87.674000 -143.789001 -0.234024 4.239488 3.121886 -14.260123 -3.351918 -7.028342 0.649017 4.601329 16.419300 0.805848 -6.075314 -2.817526 0.007000 -0.541900 -1.488900 -4.024652 -6.460644 2.942191 22.434050 3.057113 -2.264814 0.284204 -3.320559 15.768806 -0.395139 -1.701856 -13.198211 -0.098400 2.022900 -5.568900 3.563740 -0.374262 -1.169303 -0.518824 -0.352181 -0.987855 -0.766666 -0.404599 -5.718803 -4.710664 -5.759309 -14.493599 5.014059 -7.332067 5.997042 2.222700 -3.448800 3.692300 -1.898833 -1.834242 7.026653 54.039944 -42.246517 -73.119827 49.518689 -55.926194 -29.566338 0.070954 -3.119996 -111.464664 -1.674914 13.570392 0.275900 -7.125000 0.000000 0.000000 -22.895900 41.336600 2.198800 3.621033 1.266979 -0.579429 -46.781572 45.937449 -62.202446 -45.585082 52.991193 -22.873879 -0.844320 1.123229 -54.892854 4.769277 15.318955 1.050000 7.125000 0.000000 0.000000 21.370500 -16.484500 15.560300 
3.481459 17.656163 0.056038 -145.550968 87.661106 -144.114354 -0.236747 4.241654 3.121806 -14.251515 -3.365216 -7.045968 0.646524 4.595666 16.397279 0.810048 -6.117273 -2.803359 0.005500 -0.480600 -1.320700 -4.025988 -6.454890 2.938037 22.437207 3.081332 -2.261906 0.285936 -3.315740 15.755964 -0.408606 -1.654964 -13.235552 -0.084500 1.874500 -5.158900 3.544148 -0.370794 -1.152540 -0.539533 -0.349469 -0.976628 -0.759446 -0.399776 -5.685239 -4.809965 -5.759384 -14.473552 5.208086 -7.336414 5.967698 2.334400 -3.443500 3.693400 -1.940706 -1.935622 7.063847 52.253068 -42.010832 -71.756469 52.525184 -56.727249 -32.095992 0.094389 -3.237155 -111.337400 -1.783771 13.821601 0.283900 -7.125000 0.000000 0.000000 -22.969600 41.560000 2.071700 3.640370 1.353526 -0.583539 -44.539121 45.338663 -60.293939 -48.538086 54.188890 -25.185896 -0.899958 1.164702 -54.846288 4.296792 15.532824 0.944500 7.125000 0.000000 0.000000 21.051100 -16.346500 15.359400 
3.481359 17.655262 0.056138 -144.324542 87.571692 -142.875377 -0.223932 4.222622 3.110361 -14.159811 -3.392506 -7.043051 0.646092 4.592476 16.395142 0.808102 -6.086583 -2.820046 0.004800 -0.445600 -1.224500 -4.015851 -6.474309 2.947391 22.528713 3.045785 -2.262779 0.289985 -3.308337 15.727909 -0.407751 -1.640563 -13.205071 -0.082400 1.852000 -5.096800 3.629716 -0.381538 -1.123932 -0.543081 -0.356201 -0.972431 -0.783586 -0.409802 -5.674340 -4.841901 -5.782627 -14.442252 5.312828 -7.370225 5.898550 2.393800 -3.455900 3.668200 -1.995123 -2.042989 7.097813 50.410919 -41.872902 -70.520283 55.595457 -57.436854 -34.761578 0.094046 -3.355874 -111.022582 -1.993702 14.267102 0.272200 -7.125000 0.000000 0.000000 -23.197500 41.942700 1.861000 3.672717 1.441038 -0.591261 -42.273600 44.784078 -58.542807 -51.633350 55.298885 -27.666362 -0.955875 1.208730 -54.808681 3.899566 15.788884 0.857200 7.125000 0.000000 0.000000 20.774000 -16.169700 15.212400 
3.481059 17.655363 0.056138 -143.524482 87.530468 -142.051937 -0.214069 4.209787 3.101351 -14.109876 -3.370206 -7.077084 0.648708 4.593081 16.403337 0.810650 -6.127547 -2.774368 0.002200 -0.304500 -0.836700 -4.008058 -6.486735 2.952903 22.577617 3.022652 -2.271283 0.297921 -3.295309 15.684261 -0.386469 -1.728959 -13.171918 -0.101300 2.052100 -5.649700 3.670471 -0.371512 -1.092714 -0.552995 -0.337064 -0.977105 -0.801841 -0.405110 -5.675895 -4.817131 -5.802772 -14.446191 5.339143 -7.402324 5.907773 2.409200 -3.469800 3.677700 -2.063004 -2.157863 7.121598 48.416243 -41.771684 -69.119466 58.902183 -58.087975 -37.669136 0.118474 -3.480627 -110.534255 -2.316405 14.370001 0.231500 -7.125000 0.000000 0.000000 -23.396700 42.031300 1.824400 3.715771 1.543803 -0.603055 -39.847954 44.134558 -56.759764 -55.040600 56.361548 -30.463892 -1.009755 1.265680 -54.923651 3.765181 15.960285 0.824600 7.125000 0.000000 0.000000 20.665300 -16.078300 15.165100 
